# xmcd
#
# Track frame offsets:
#	150
#	11400
#	23207
#	37725
#	47086
#	58861
#	71139
#	81714
#	93916
#	107632
#	118413
#	127398
#	138212
#	149078
#	161244
#
# Disc length: 2476 seconds
#
# Revision: 0
# Processed by: cddbd v1.5.2PL0 Copyright (c) Steve Scherf et al.
# Submitted via: audiograbber 1.83.01
#
DISCID=e309aa0f
DTITLE=Hank Cash - Hank Cash
DYEAR=2007
DGENRE=Country
TTITLE0=Folsom prison blues
TTITLE1=I walk the line
TTITLE2=Cocaine blues
TTITLE3=Wreck of the old  '97
TTITLE4=I still miss someone
TTITLE5=Lord,won't you have mercy
TTITLE6=Rawhide
TTITLE7=Highway 54
TTITLE8=Thunderstones and neonsigns
TTITLE9=Ring of fire
TTITLE10=Get rhythm
TTITLE11=Big river
TTITLE12=Move it on over
TTITLE13=Out of gasoline
TTITLE14=Just can't get away
EXTD=
EXTT0=
EXTT1=
EXTT2=
EXTT3=
EXTT4=
EXTT5=
EXTT6=
EXTT7=
EXTT8=
EXTT9=
EXTT10=
EXTT11=
EXTT12=
EXTT13=
EXTT14=
PLAYORDER=
